<svg width="179" height="62" viewBox="0 0 179 62" fill="none" xmlns="http://www.w3.org/2000/svg">
<path d="M0.904 49V4.2H17.352C22.088 4.2 26.184 5.16 29.64 7.08C33.1387 9 35.848 11.6453 37.768 15.016C39.7307 18.3867 40.712 22.248 40.712 26.6C40.712 30.952 39.7307 34.8133 37.768 38.184C35.848 41.5547 33.1387 44.2 29.64 46.12C26.184 48.04 22.088 49 17.352 49H0.904ZM11.656 40.04H17.096C19.5707 40.04 21.768 39.5067 23.688 38.44C25.6507 37.3307 27.1867 35.7733 28.296 33.768C29.4053 31.7627 29.96 29.3733 29.96 26.6C29.96 23.8267 29.4053 21.4373 28.296 19.432C27.1867 17.4267 25.6507 15.8907 23.688 14.824C21.768 13.7147 19.5707 13.16 17.096 13.16H11.656V40.04ZM46.212 49V16.168H56.196V49H46.212ZM51.204 12.456C49.6253 12.456 48.26 11.88 47.108 10.728C45.956 9.576 45.38 8.21067 45.38 6.632C45.38 5.05333 45.956 3.688 47.108 2.536C48.26 1.34133 49.6253 0.743999 51.204 0.743999C52.7827 0.743999 54.148 1.34133 55.3 2.536C56.452 3.688 57.028 5.05333 57.028 6.632C57.028 8.21067 56.452 9.576 55.3 10.728C54.148 11.88 52.7827 12.456 51.204 12.456ZM79.718 49.768C76.3473 49.768 73.318 49.0213 70.63 47.528C67.942 46.0347 65.8087 43.9867 64.23 41.384C62.694 38.7813 61.926 35.8587 61.926 32.616C61.926 29.3307 62.694 26.408 64.23 23.848C65.8087 21.2453 67.942 19.1973 70.63 17.704C73.318 16.168 76.3473 15.4 79.718 15.4C83.0887 15.4 86.0967 16.168 88.742 17.704C91.43 19.1973 93.542 21.2453 95.078 23.848C96.6567 26.408 97.446 29.3307 97.446 32.616C97.446 35.8587 96.6567 38.7813 95.078 41.384C93.542 43.9867 91.43 46.0347 88.742 47.528C86.054 49.0213 83.046 49.768 79.718 49.768ZM79.718 41.128C81.2967 41.128 82.662 40.744 83.814 39.976C84.966 39.208 85.862 38.184 86.502 36.904C87.142 35.624 87.462 34.1733 87.462 32.552C87.462 30.9733 87.142 29.544 86.502 28.264C85.862 26.984 84.966 25.96 83.814 25.192C82.662 24.424 81.2967 24.04 79.718 24.04C78.1393 24.04 76.7527 24.424 75.558 25.192C74.406 25.96 73.51 26.984 72.87 28.264C72.23 29.544 71.91 30.9733 71.91 32.552C71.91 34.1733 72.23 35.624 72.87 36.904C73.51 38.184 74.406 39.208 75.558 39.976C76.7527 40.744 78.1393 41.128 79.718 41.128ZM108.329 61.992V53.48H124.713C125.353 53.48 125.886 53.2667 126.313 52.84C126.74 52.456 126.953 51.9653 126.953 51.368V44.136H126.761C125.908 45.1173 124.99 45.9493 124.009 46.632C123.07 47.3147 122.004 47.8267 120.809 48.168C119.657 48.5093 118.356 48.68 116.905 48.68C114.004 48.68 111.401 47.9973 109.097 46.632C106.836 45.224 105.044 43.2827 103.721 40.808C102.441 38.3333 101.801 35.5173 101.801 32.36C101.801 29.2453 102.462 26.408 103.785 23.848C105.15 21.288 107.134 19.24 109.737 17.704C112.34 16.168 115.518 15.4 119.273 15.4C122.857 15.4 125.95 16.1467 128.553 17.64C131.198 19.0907 133.246 21.16 134.697 23.848C136.148 26.4933 136.873 29.608 136.873 33.192V52.392C136.873 55.336 135.998 57.6613 134.249 59.368C132.542 61.1173 130.174 61.992 127.145 61.992H108.329ZM119.337 40.36C120.873 40.36 122.196 40.0187 123.305 39.336C124.414 38.6107 125.268 37.6507 125.865 36.456C126.462 35.2613 126.761 33.9387 126.761 32.488C126.761 30.952 126.462 29.544 125.865 28.264C125.268 26.984 124.414 25.9813 123.305 25.256C122.196 24.488 120.873 24.104 119.337 24.104C117.844 24.104 116.521 24.4667 115.369 25.192C114.26 25.9173 113.406 26.8987 112.809 28.136C112.212 29.3733 111.913 30.76 111.913 32.296C111.913 33.7893 112.212 35.1547 112.809 36.392C113.406 37.5867 114.26 38.5467 115.369 39.272C116.521 39.9973 117.844 40.36 119.337 40.36ZM160.281 49.768C156.91 49.768 153.881 49.0213 151.193 47.528C148.505 46.0347 146.371 43.9867 144.793 41.384C143.257 38.7813 142.489 35.8587 142.489 32.616C142.489 29.3307 143.257 26.408 144.793 23.848C146.371 21.2453 148.505 19.1973 151.193 17.704C153.881 16.168 156.91 15.4 160.281 15.4C163.651 15.4 166.659 16.168 169.305 17.704C171.993 19.1973 174.105 21.2453 175.641 23.848C177.219 26.408 178.009 29.3307 178.009 32.616C178.009 35.8587 177.219 38.7813 175.641 41.384C174.105 43.9867 171.993 46.0347 169.305 47.528C166.617 49.0213 163.609 49.768 160.281 49.768ZM160.281 41.128C161.859 41.128 163.225 40.744 164.377 39.976C165.529 39.208 166.425 38.184 167.065 36.904C167.705 35.624 168.025 34.1733 168.025 32.552C168.025 30.9733 167.705 29.544 167.065 28.264C166.425 26.984 165.529 25.96 164.377 25.192C163.225 24.424 161.859 24.04 160.281 24.04C158.702 24.04 157.315 24.424 156.121 25.192C154.969 25.96 154.073 26.984 153.433 28.264C152.793 29.544 152.473 30.9733 152.473 32.552C152.473 34.1733 152.793 35.624 153.433 36.904C154.073 38.184 154.969 39.208 156.121 39.976C157.315 40.744 158.702 41.128 160.281 41.128Z" fill="#141414"/>
</svg>
