<svg width="38" height="38" viewBox="0 0 38 38" fill="none" xmlns="http://www.w3.org/2000/svg">
<path d="M0.090332 38L2.76142 28.2419C1.11317 25.3856 0.247082 22.1477 0.248665 18.8274C0.253415 8.44708 8.7005 0 19.0792 0C24.1158 0.00158333 28.8437 1.96333 32.3998 5.52267C35.9544 9.082 37.9114 13.813 37.9098 18.8448C37.9051 29.2268 29.458 37.6738 19.0792 37.6738C15.9284 37.6723 12.8235 36.8822 10.0732 35.3812L0.090332 38ZM10.5356 31.9723C13.1892 33.5477 15.7226 34.4913 19.0729 34.4929C27.6989 34.4929 34.7257 27.4724 34.7305 18.8417C34.7337 10.1935 27.7401 3.1825 19.0856 3.17933C10.4532 3.17933 3.43117 10.1998 3.428 18.829C3.42642 22.3519 4.45875 24.9897 6.1925 27.7495L4.61075 33.5255L10.5356 31.9723ZM28.565 23.3209C28.4478 23.1246 28.1343 23.0074 27.6625 22.7715C27.1923 22.5356 24.879 21.3972 24.4467 21.2404C24.0161 21.0837 23.7026 21.0045 23.3875 21.4763C23.074 21.9466 22.1715 23.0074 21.8976 23.3209C21.6237 23.6344 21.3482 23.674 20.8779 23.4381C20.4077 23.2022 18.8908 22.7066 17.0937 21.1027C15.6957 19.855 14.7504 18.3144 14.4765 17.8426C14.2026 17.3723 14.448 17.1174 14.6823 16.8831C14.8945 16.6725 15.1526 16.3337 15.3885 16.0582C15.6276 15.7858 15.7052 15.5895 15.8635 15.2744C16.0202 14.9609 15.9427 14.6854 15.8239 14.4495C15.7052 14.2152 14.7647 11.8988 14.3736 10.9567C13.9904 10.0399 13.6025 10.1634 13.3143 10.1492L12.4118 10.1333C12.0983 10.1333 11.5885 10.2505 11.1578 10.7223C10.7272 11.1942 9.51117 12.331 9.51117 14.6474C9.51117 16.9638 11.1974 19.2011 11.4317 19.5146C11.6677 19.8281 14.7488 24.5813 19.4687 26.619C20.5913 27.1035 21.4685 27.3932 22.1509 27.6102C23.2782 27.968 24.3042 27.9173 25.1149 27.797C26.019 27.6624 27.8984 26.6586 28.2911 25.5597C28.6838 24.4593 28.6838 23.5173 28.565 23.3209Z" fill="url(#paint0_linear_41_268)"/>
<defs>
<linearGradient id="paint0_linear_41_268" x1="19.0001" y1="0" x2="19.0001" y2="38" gradientUnits="userSpaceOnUse">
<stop stop-color="#C4C4C4"/>
<stop offset="0.0001" stop-color="#6211CA"/>
<stop offset="1" stop-color="#45A0F4"/>
</linearGradient>
</defs>
</svg>
